PathFileType	4	(x/y/z)	S09_BK_Cal_T01
DataRate	CameraRate	NumFrames	NumMarkers	Units	OrigDataRate	OrigDataStartFrame	OrigNumFrames
240	240	8	51	mm	240	901	2400
Frame#	Time	Sternum			R.Acromium			L.Acromium			Top.Head			R.ASIS			L.ASIS			R.PSIS			L.PSIS			R.Great.Tro			L.Great.Tro			R.Iliac.Crest			L.Iliac.Crest			V.Sacral			R.Thigh.Upper.Post			R.Thigh.Lower.Ant			R.Thigh.Lower.Post			R.Thigh.Upper.Ant			R.Knee.Lat			R.Knee.Med			R.Shank.Upper.Post			R.Shank.Lower.Ant			R.Shank.Lower.Post			R.Shank.Upper.Ant			R.Ankle.Lat			R.Ankle.Med			R.Heel.Upper			R.Heel.Med			R.Heel.Lat			R.Toe.Lat			R.Toe.Med			R.Toe.Tip			L.Thigh.Upper.Post			L.Thigh.Lower.Ant			L.Thigh.Lower.Post			L.Thigh.Upper.Ant			L.Knee.Lat			L.Knee.Med			L.Shank.Upper.Post			L.Shank.Lower.Ant			L.Shank.Lower.Post			L.Shank.Upper.Ant			L.Ankle.Lat			L.Ankle.Med			L.Heel.Upper			L.Heel.Med			L.Heel.Lat			L.Toe.Lat			L.Toe.Med			L.Toe.Tip			Cervical.Spine			Back			
		X1	Y1	Z1	X2	Y2	Z2	X3	Y3	Z3	X4	Y4	Z4	X5	Y5	Z5	X6	Y6	Z6	X7	Y7	Z7	X8	Y8	Z8	X9	Y9	Z9	X10	Y10	Z10	X11	Y11	Z11	X12	Y12	Z12	X13	Y13	Z13	X14	Y14	Z14	X15	Y15	Z15	X16	Y16	Z16	X17	Y17	Z17	X18	Y18	Z18	X19	Y19	Z19	X20	Y20	Z20	X21	Y21	Z21	X22	Y22	Z22	X23	Y23	Z23	X24	Y24	Z24	X25	Y25	Z25	X26	Y26	Z26	X27	Y27	Z27	X28	Y28	Z28	X29	Y29	Z29	X30	Y30	Z30	X31	Y31	Z31	X32	Y32	Z32	X33	Y33	Z33	X34	Y34	Z34	X35	Y35	Z35	X36	Y36	Z36	X37	Y37	Z37	X38	Y38	Z38	X39	Y39	Z39	X40	Y40	Z40	X41	Y41	Z41	X42	Y42	Z42	X43	Y43	Z43	X44	Y44	Z44	X45	Y45	Z45	X46	Y46	Z46	X47	Y47	Z47	X48	Y48	Z48	X49	Y49	Z49	X50	Y50	Z50	X51	Y51	Z51	

901	3.75	570.7	1097.7	294.61	464.86	1365.1	443.26	475.75	1365.5	128.05	531.42	1667.4	299.04	464.76	941.18	398.69	466.38	940.49	154.02	252.97	1005	320.66	259.99	1005.8	230.22	376.42	876.72	474.27	389.13	872.32	82.759	397.38	1036.7	438.6	391.61	1051	118.37	231.69	972.83	271.73	462.32	642.03	464.94	569.8	576.46	433.46	492.8	555.32	437.88	533.16	656.64	458.32	573.54	492.79	423.47	571.22	482.02	301.5	466.3	343.58	433.12	512.56	265.41	420.13	440.63	271.78	425.25	531.47	336.62	429.73	397.24	96.067	406.97	431.52	100.69	322.16	333.33	77.487	358.63	342.93	44.682	330.83	334.6	48.539	395.64	492.46	40.767	453.19	542.44	44.376	348.05	589.31	59.89	395.17	424.68	609.17	119.13	538.29	551.55	109.8	476.77	533.86	136.52	490.17	624.36	88.144	551.13	476.01	119.85	578.07	490.9	250.82	481.84	369.69	106.53	516.69	265.54	117.3	460.29	295.97	110.53	538.39	340.86	113.42	412.59	107.58	131.56	426.18	93.974	224.97	336.81	71.161	175.9	347.39	46.05	208.71	337.95	43.869	147.24	511.58	43.951	95.069	547.51	42.556	203.82	599.9	59.665	146.64	399.91	1423.1	295.03	312.16	1176	273.04
902	3.7542	570.68	1097.6	294.65	464.85	1365.1	443.3	475.73	1365.5	128.09	531.39	1667.4	299.08	464.74	941.17	398.73	466.35	940.49	154.06	252.95	1005	320.72	259.98	1005.8	230.28	376.41	876.72	474.31	389.09	872.32	82.792	397.37	1036.7	438.65	391.58	1051	118.41	231.66	972.83	271.79	462.31	642.02	464.97	569.79	576.46	433.48	492.79	555.31	437.9	533.15	656.63	458.35	573.53	492.79	423.49	571.21	482.03	301.51	466.29	343.58	433.13	512.56	265.41	420.14	440.63	271.77	425.26	531.46	336.62	429.73	397.24	96.065	406.97	431.52	100.69	322.16	333.33	77.486	358.63	342.92	44.68	330.83	334.6	48.536	395.64	492.46	40.766	453.19	542.44	44.377	348.05	589.3	59.892	395.17	424.66	609.17	119.17	538.27	551.55	109.84	476.75	533.86	136.55	490.14	624.37	88.178	551.11	476.03	119.87	578.06	490.9	250.84	481.82	369.7	106.55	516.67	265.55	117.31	460.27	295.98	110.55	538.38	340.86	113.44	412.59	107.58	131.57	426.18	93.97	224.97	336.81	71.159	175.9	347.39	46.048	208.71	337.95	43.866	147.24	511.58	43.953	95.07	547.51	42.558	203.82	599.9	59.668	146.64	399.89	1423.1	295.07	312.14	1176	273.08
903	3.7583	570.65	1097.6	294.68	464.84	1365.1	443.34	475.72	1365.5	128.13	531.37	1667.4	299.11	464.72	941.17	398.77	466.32	940.49	154.1	252.93	1005	320.77	259.96	1005.8	230.34	376.4	876.71	474.35	389.05	872.32	82.827	397.36	1036.7	438.69	391.54	1051	118.45	231.64	972.84	271.85	462.29	642.02	465	569.78	576.46	433.5	492.78	555.31	437.93	533.14	656.62	458.38	573.52	492.79	423.5	571.19	482.04	301.53	466.28	343.58	433.14	512.56	265.41	420.14	440.62	271.77	425.26	531.45	336.61	429.74	397.24	96.062	406.97	431.51	100.69	322.16	333.33	77.483	358.64	342.92	44.678	330.83	334.6	48.534	395.65	492.46	40.766	453.19	542.44	44.378	348.05	589.3	59.893	395.17	424.63	609.18	119.2	538.25	551.55	109.87	476.73	533.87	136.58	490.11	624.37	88.212	551.09	476.04	119.88	578.04	490.9	250.86	481.81	369.7	106.57	516.66	265.56	117.32	460.25	295.98	110.57	538.36	340.87	113.45	412.59	107.58	131.57	426.18	93.967	224.97	336.81	71.157	175.9	347.39	46.045	208.71	337.95	43.863	147.25	511.58	43.954	95.071	547.51	42.561	203.82	599.9	59.672	146.63	399.88	1423.1	295.11	312.12	1176	273.13
904	3.7625	570.62	1097.6	294.72	464.83	1365.1	443.38	475.7	1365.5	128.17	531.34	1667.4	299.14	464.7	941.16	398.82	466.29	940.49	154.14	252.91	1005	320.82	259.93	1005.8	230.4	376.39	876.71	474.39	389.01	872.32	82.864	397.35	1036.7	438.74	391.51	1051	118.49	231.62	972.84	271.91	462.28	642.01	465.03	569.77	576.46	433.52	492.77	555.3	437.95	533.13	656.62	458.4	573.51	492.79	423.52	571.18	482.05	301.54	466.27	343.58	433.15	512.55	265.42	420.14	440.61	271.77	425.27	531.45	336.61	429.75	397.23	96.059	406.98	431.51	100.69	322.16	333.33	77.481	358.64	342.92	44.675	330.83	334.6	48.531	395.65	492.46	40.765	453.19	542.44	44.379	348.05	589.3	59.895	395.17	424.61	609.18	119.23	538.22	551.55	109.9	476.7	533.88	136.61	490.09	624.38	88.246	551.06	476.06	119.9	578.02	490.9	250.89	481.79	369.71	106.58	516.64	265.57	117.33	460.24	295.99	110.58	538.34	340.88	113.47	412.58	107.58	131.58	426.17	93.963	224.97	336.81	71.155	175.9	347.39	46.043	208.71	337.95	43.859	147.25	511.58	43.955	95.071	547.51	42.563	203.82	599.9	59.675	146.63	399.87	1423.1	295.15	312.09	1176	273.18
905	3.7667	570.6	1097.6	294.76	464.81	1365.1	443.42	475.68	1365.5	128.21	531.31	1667.4	299.17	464.68	941.15	398.86	466.26	940.49	154.18	252.88	1005	320.88	259.91	1005.8	230.46	376.38	876.7	474.43	388.97	872.32	82.902	397.33	1036.7	438.78	391.47	1051	118.53	231.59	972.84	271.97	462.27	642	465.05	569.75	576.46	433.54	492.76	555.3	437.97	533.11	656.61	458.43	573.5	492.79	423.53	571.17	482.06	301.55	466.26	343.58	433.16	512.54	265.42	420.15	440.61	271.77	425.28	531.44	336.61	429.75	397.23	96.056	406.98	431.51	100.69	322.16	333.33	77.478	358.64	342.92	44.673	330.83	334.6	48.528	395.65	492.46	40.765	453.19	542.44	44.38	348.05	589.3	59.896	395.17	424.58	609.19	119.27	538.19	551.55	109.93	476.68	533.88	136.63	490.06	624.38	88.279	551.04	476.08	119.91	578	490.9	250.91	481.77	369.72	106.6	516.62	265.57	117.34	460.22	295.99	110.6	538.32	340.88	113.49	412.58	107.58	131.58	426.17	93.959	224.98	336.81	71.153	175.9	347.39	46.04	208.71	337.95	43.856	147.25	511.58	43.956	95.072	547.51	42.565	203.82	599.9	59.679	146.63	399.85	1423.1	295.19	312.07	1176	273.22
906	3.7708	570.57	1097.6	294.8	464.8	1365.1	443.46	475.66	1365.5	128.25	531.29	1667.4	299.2	464.66	941.14	398.91	466.23	940.49	154.21	252.86	1005	320.94	259.89	1005.8	230.53	376.37	876.7	474.47	388.93	872.32	82.941	397.32	1036.7	438.83	391.43	1051	118.57	231.57	972.85	272.03	462.25	642	465.08	569.74	576.46	433.56	492.75	555.3	438	533.1	656.61	458.46	573.48	492.79	423.55	571.15	482.07	301.57	466.25	343.58	433.17	512.54	265.42	420.15	440.6	271.77	425.29	531.43	336.61	429.76	397.23	96.052	406.98	431.5	100.69	322.16	333.32	77.476	358.64	342.92	44.671	330.83	334.6	48.525	395.65	492.46	40.764	453.19	542.44	44.381	348.05	589.3	59.897	395.17	424.56	609.19	119.3	538.17	551.55	109.96	476.65	533.89	136.66	490.03	624.39	88.313	551.02	476.1	119.92	577.98	490.9	250.93	481.75	369.72	106.62	516.61	265.58	117.35	460.2	296	110.62	538.3	340.89	113.5	412.57	107.58	131.59	426.17	93.954	224.98	336.81	71.15	175.9	347.38	46.037	208.71	337.95	43.852	147.25	511.58	43.957	95.073	547.5	42.567	203.82	599.9	59.683	146.63	399.84	1423.1	295.23	312.05	1176	273.27
907	3.775	570.54	1097.6	294.84	464.79	1365.1	443.5	475.65	1365.5	128.3	531.26	1667.4	299.23	464.63	941.13	398.95	466.2	940.49	154.25	252.84	1005	320.99	259.86	1005.8	230.59	376.36	876.7	474.51	388.89	872.32	82.981	397.3	1036.7	438.87	391.39	1051	118.61	231.54	972.85	272.1	462.23	641.99	465.11	569.73	576.46	433.58	492.74	555.29	438.02	533.08	656.6	458.49	573.47	492.79	423.57	571.14	482.08	301.58	466.24	343.58	433.18	512.53	265.42	420.16	440.59	271.77	425.29	531.42	336.61	429.77	397.23	96.048	406.99	431.5	100.69	322.16	333.32	77.473	358.65	342.92	44.669	330.83	334.6	48.522	395.65	492.46	40.763	453.19	542.43	44.382	348.05	589.3	59.899	395.17	424.53	609.2	119.32	538.14	551.56	109.98	476.63	533.9	136.68	490	624.4	88.347	551	476.11	119.94	577.95	490.91	250.95	481.73	369.73	106.63	516.59	265.59	117.36	460.18	296	110.63	538.28	340.89	113.52	412.57	107.58	131.59	426.17	93.95	224.98	336.81	71.147	175.91	347.38	46.033	208.71	337.95	43.848	147.25	511.58	43.958	95.074	547.5	42.569	203.82	599.9	59.686	146.63	399.82	1423.1	295.27	312.02	1176	273.32
908	3.7792	570.51	1097.6	294.88	464.78	1365.1	443.54	475.63	1365.4	128.35	531.24	1667.4	299.26	464.61	941.12	399	466.17	940.49	154.29	252.82	1005	321.05	259.84	1005.8	230.65	376.35	876.7	474.55	388.85	872.32	83.022	397.29	1036.7	438.92	391.35	1051	118.65	231.51	972.86	272.16	462.22	641.99	465.14	569.71	576.46	433.61	492.73	555.29	438.05	533.07	656.6	458.52	573.45	492.8	423.58	571.12	482.1	301.6	466.23	343.58	433.19	512.52	265.42	420.16	440.58	271.77	425.3	531.4	336.61	429.78	397.22	96.044	406.99	431.5	100.69	322.16	333.32	77.47	358.65	342.91	44.667	330.83	334.6	48.518	395.65	492.46	40.762	453.19	542.43	44.383	348.05	589.3	59.9	395.16	424.51	609.2	119.35	538.11	551.57	110.01	476.6	533.91	136.7	489.97	624.41	88.38	550.97	476.13	119.95	577.93	490.91	250.97	481.7	369.74	106.65	516.57	265.6	117.36	460.16	296.01	110.65	538.26	340.9	113.53	412.56	107.58	131.6	426.17	93.946	224.98	336.81	71.144	175.91	347.38	46.03	208.71	337.94	43.844	147.25	511.58	43.958	95.075	547.5	42.572	203.82	599.9	59.69	146.63	399.81	1423.1	295.31	312	1176	273.37
